<?xml version="1.0" standalone="yes"?>

<svg version="1.1" viewBox="0.0 0.0 296.0 297.0" fill="none" stroke="none" stroke-linecap="square" stroke-miterlimit="10" xmlns="http://www.w3.org/2000/svg" xmlns:xlink="http://www.w3.org/1999/xlink"><clipPath id="p.0"><path d="m0 0l296.0 0l0 297.0l-296.0 0l0 -297.0z" clip-rule="nonzero"></path></clipPath><g clip-path="url(#p.0)"><path fill="#000000" fill-opacity="0.0" d="m0 0l296.24933 0l0 297.13385l-296.24933 0z" fill-rule="nonzero"></path><path fill="#ffffff" d="m-0.35170603 -0.503937l298.14175 0l0 299.2126l-298.14175 0z" fill-rule="nonzero"></path><path fill="#000000" fill-opacity="0.0" d="m10.12232 191.03253l280.0315 0l0 103.62204l-280.0315 0z" fill-rule="nonzero"></path><path fill="#434343" d="m25.762945 260.83252l0 -21.35936q0 -0.796875 0.5625 -1.359375q0.5625 -0.5625 1.359375 -0.5625q0.796875 0 1.359375 0.5625q0.5625 0.5625 0.5625 1.359375l0 21.35936q0 5.046875 3.515627 8.5625q3.515625 3.515625 8.484375 3.59375q5.03125 -0.078125 8.59375 -3.59375q3.5625 -3.515625 3.5625 -8.5625l0 -21.35936q0 -0.796875 0.59375 -1.359375q0.609375 -0.5625 1.40625 -0.5625q0.796875 0 1.359375 0.5625q0.5625 0.5625 0.5625 1.359375l0 21.35936q0 6.640625 -4.6875 11.328125q-4.671875 4.671875 -11.3125 4.671875q-6.640625 0 -11.281252 -4.671875q-4.640625 -4.6875 -4.640625 -11.328125zm53.602448 14.40625q-0.40625 1.59375 -1.84375 1.59375l-0.484375 0q-0.875 -0.234375 -1.28125 -1.046875q-0.078125 -0.078125 -0.078125 -0.234375l-0.078125 -0.15625l0 -35.76561q0 -0.796875 0.5625 -1.359375q0.5625 -0.5625 1.359375 -0.5625q0.796875 0 1.3125 0.5625q0.53125 0.5625 0.53125 1.359375l0 3.765625q4.71875 -5.6875 11.71875 -5.6875q7.0 0 11.671875 4.6875q4.6875 4.671875 4.6875 11.234375l0 21.281235q0 0.796875 -0.5625 1.359375q-0.5625 0.5625 -1.359375 0.5625q-0.796875 0 -1.359375 -0.5625q-0.5625 -0.5625 -0.5625 -1.359375l0 -21.281235q0 -4.953125 -3.515625 -8.515625q-3.515625 -3.5625 -8.515625 -3.5625q-5.0 0 -8.53125 3.53125q-3.515625 3.515625 -3.671875 8.546875l0 21.60936zm45.352448 -0.328125l0 -35.35936q0 -0.796875 0.5625 -1.359375q0.5625 -0.5625 1.390625 -0.5625q0.84375 0 1.4062424 0.5625q0.5625 0.5625 0.5625 1.359375l0 35.35936q0 0.796875 -0.609375 1.359375q-0.5937424 0.5625 -1.3906174 0.5625q-0.796875 0 -1.359375 -0.5625q-0.5625 -0.5625 -0.5625 -1.359375zm0 -46.312485l0 -1.84375q0 -0.796875 0.5625 -1.359375q0.5625 -0.5625 1.359375 -0.5625q0.796875 0 1.3906174 0.5625q0.609375 0.5625 0.609375 1.359375l0 1.84375q0 0.875 -0.609375 1.484375q-0.5937424 0.59375 -1.3906174 0.59375q-0.796875 0 -1.359375 -0.59375q-0.5625 -0.609375 -0.5625 -1.484375zm19.917473 42.64061q-1.359375 -1.203125 -0.234375 -2.5625q0.484375 -0.640625 1.28125 -0.71875q0.796875 -0.078125 1.4375 0.46875q6.25 4.5625 11.359375 4.5625q5.125 0 8.078125 -2.390625q2.96875 -2.0 2.921875 -4.671875q-0.03125 -2.6875 -2.640625 -4.765625q-2.59375 -2.09375 -8.4375 -3.046875l-0.15625 -0.078125q-6.25 -1.125 -8.875 -3.0468597q-4.25 -2.46875 -4.25 -7.03125q0 -4.5625 4.25 -7.6875q3.828125 -2.640625 9.59375 -2.640625q2.3125 0 4.671875 0.765625q2.359375 0.75 3.59375 1.4375q1.25 0.6875 3.40625 2.046875q0.640625 0.46875 0.796875 1.28125q0.171875 0.796875 -0.234375 1.4375q-0.390625 0.640625 -1.203125 0.796875q-0.796875 0.15625 -1.4375 -0.25q-2.0 -1.359375 -3.0 -1.953125q-1.0 -0.59375 -2.921875 -1.265625q-1.90625 -0.6875 -3.671875 -0.6875q-4.640625 0 -7.28125 2.125q-2.640625 2.109375 -2.640625 4.4375q0 2.3125 2.234375 4.078125q2.8125 1.90625 8.0 2.71875l0.171875 0q5.1875 0.796875 9.515625 3.1874847q4.40625 2.890625 4.40625 7.734375q0 4.828125 -4.375 8.078125q-4.359375 3.234375 -9.875 3.234375q-7.59375 -0.078125 -14.484375 -5.59375zm45.438095 -0.203125q-5.4375 -5.796875 -5.4375 -13.796875q0 -7.9999847 5.4375 -13.79686q5.453125 -5.8125 13.125 -5.8125q7.6875 0 13.125 5.8125q5.4375 5.796875 5.4375 13.79686q0 8.0 -5.4375 13.796875q-5.4375 5.796875 -13.125 5.796875q-7.671875 0 -13.125 -5.796875zm13.125 -29.64061q-6.0 0 -10.359375 4.640625q-4.359375 4.640625 -4.359375 11.156235q0 6.515625 4.359375 11.15625q4.359375 4.640625 10.359375 4.640625q6.0 0 10.359375 -4.640625q4.359375 -4.640625 4.359375 -11.15625q0 -6.5156097 -4.359375 -11.156235q-4.359375 -4.640625 -10.359375 -4.640625zm37.04683 33.843735q-0.40625 1.59375 -1.84375 1.59375l-0.484375 0q-0.875 -0.234375 -1.28125 -1.046875q-0.078125 -0.078125 -0.078125 -0.234375l-0.078125 -0.15625l0 -35.76561q0 -0.796875 0.5625 -1.359375q0.5625 -0.5625 1.359375 -0.5625q0.796875 0 1.3125 0.5625q0.53125 0.5625 0.53125 1.359375l0 3.765625q4.71875 -5.6875 11.71875 -5.6875q7.0 0 11.671875 4.6875q4.6875 4.671875 4.6875 11.234375l0 21.281235q0 0.796875 -0.5625 1.359375q-0.5625 0.5625 -1.359375 0.5625q-0.796875 0 -1.359375 -0.5625q-0.5625 -0.5625 -0.5625 -1.359375l0 -21.281235q0 -4.953125 -3.515625 -8.515625q-3.515625 -3.5625 -8.515625 -3.5625q-5.0 0 -8.53125 3.53125q-3.515625 3.515625 -3.671875 8.546875l0 21.60936z" fill-rule="nonzero"></path><path fill="#ffffff" d="m112.75853 201.80315l34.173233 0l0 31.46457l-34.173233 0z" fill-rule="nonzero"></path><path fill="#000000" fill-opacity="0.0" d="m46.484802 120.10511l0 0c0 -53.648148 43.490417 -97.138565 97.138565 -97.138565l0 0c25.762756 0 50.47032 10.234213 68.68735 28.451227c18.21701 18.217014 28.451218 42.924587 28.451218 68.68733l0 0c0 53.648155 -43.490417 97.13857 -97.138565 97.13857l0 0c-53.648148 0 -97.138565 -43.490417 -97.138565 -97.13857z" fill-rule="nonzero"></path><path stroke="#cc4125" stroke-width="1.0" stroke-linejoin="round" stroke-linecap="butt" stroke-dasharray="1.0,3.0" d="m46.484802 120.10511l0 0c0 -53.648148 43.490417 -97.138565 97.138565 -97.138565l0 0c25.762756 0 50.47032 10.234213 68.68735 28.451227c18.21701 18.217014 28.451218 42.924587 28.451218 68.68733l0 0c0 53.648155 -43.490417 97.13857 -97.138565 97.13857l0 0c-53.648148 0 -97.138565 -43.490417 -97.138565 -97.13857z" fill-rule="nonzero"></path><path fill="#000000" fill-opacity="0.0" d="m55.964375 120.00679l0 0c0 -48.35842 39.20225 -87.56067 87.560684 -87.56067l0 0c23.222534 0 45.493927 9.225117 61.914734 25.645927c16.420822 16.42081 25.645935 38.69221 25.645935 61.914745l0 0c0 48.35843 -39.202255 87.56067 -87.56067 87.56067l0 0c-48.35843 0 -87.560684 -39.20224 -87.560684 -87.56067z" fill-rule="nonzero"></path><path stroke="#cc4125" stroke-width="2.0" stroke-linejoin="round" stroke-linecap="butt" d="m55.964375 120.00679l0 0c0 -48.35842 39.20225 -87.56067 87.560684 -87.56067l0 0c23.222534 0 45.493927 9.225117 61.914734 25.645927c16.420822 16.42081 25.645935 38.69221 25.645935 61.914745l0 0c0 48.35843 -39.202255 87.56067 -87.56067 87.56067l0 0c-48.35843 0 -87.560684 -39.20224 -87.560684 -87.56067z" fill-rule="nonzero"></path><path fill="#000000" fill-opacity="0.0" d="m100.27367 76.91234l0 0c43.469177 -43.47753 98.36316 -59.061035 122.609116 -34.806732l0 0c11.643311 11.647327 14.517334 31.111618 7.989807 54.110954c-6.527527 22.999336 -21.921906 47.649727 -42.79654 68.52837l0 0c-43.469177 43.477524 -98.36315 59.061035 -122.609116 34.806732l0 0c-24.245956 -24.254303 -8.6624565 -79.161804 34.806732 -122.63933z" fill-rule="nonzero"></path><path stroke="#cc4125" stroke-width="1.0" stroke-linejoin="round" stroke-linecap="butt" stroke-dasharray="1.0,3.0" d="m100.27367 76.91234l0 0c43.469177 -43.47753 98.36316 -59.061035 122.609116 -34.806732l0 0c11.643311 11.647327 14.517334 31.111618 7.989807 54.110954c-6.527527 22.999336 -21.921906 47.649727 -42.79654 68.52837l0 0c-43.469177 43.477524 -98.36315 59.061035 -122.609116 34.806732l0 0c-24.245956 -24.254303 -8.6624565 -79.161804 34.806732 -122.63933z" fill-rule="nonzero"></path></g></svg>

